 <svg xmlns="http://www.w3.org/2000/svg" xmlns:xlink="http://www.w3.org/1999/xlink" version="1.1" x="0px" y="0px" viewBox="0 0 30 30" xml:space="preserve"  width="100%" height="100%" class="" fill="rgba(255, 229, 150, 1.0)"><g transform="translate(-570 -260)"><g xmlns="http://www.w3.org/2000/svg" xmlns:xlink="http://www.w3.org/1999/xlink"><path d="M592,277c0,4.963-4.037,9-9,9s-9-4.037-9-9s4.037-9,9-9c1.613,0,3.126,0.432,4.438,1.18    c0.419-0.535,0.839-1.059,1.26-1.572c-1.664-1.014-3.61-1.607-5.697-1.607c-6.065,0-11,4.934-11,11c0,6.065,4.935,11,11,11    c6.065,0,11-4.935,11-11c0-2.605-0.914-4.996-2.433-6.883c-0.389,0.58-0.775,1.174-1.161,1.781    C591.409,273.35,592,275.107,592,277z"></path><path d="M595.831,261.455c-1.591,1.443-3.085,2.994-4.509,4.603c-1.806,2.043-3.5,4.184-5.107,6.389    c-1.229,1.695-2.406,3.402-3.535,5.182l-3.431-3.191l-2.5,3.123l5.299,3.627l1.558,1.066l0.741-1.545    c1.125-2.35,2.421-4.717,3.773-7.004c1.361-2.293,2.815-4.535,4.387-6.693c1.24-1.699,2.555-3.35,3.975-4.904L595.831,261.455z"></path></g></g></svg>